<svg xmlns="http://www.w3.org/2000/svg" viewBox="0 0 44 30" width="44" height="30">
	<style>
		tspan { white-space:pre }
		.shp0 { fill: #e7526b } 
	</style>
	<path class="shp0" d="M8.21 8.24L7.6 7.96L3 8.57L2.77 9.5L4.14 10.08L1.8 27.68L5.53 27.68L6.36 21.72C6.74 21.79 7.14 21.82 7.54 21.82C9.89 21.82 11.8 20.97 13.29 19.27C13.97 18.48 14.5 17.55 14.88 16.49C15.25 15.42 15.44 14.38 15.44 13.36C15.44 12.34 15.36 11.51 15.18 10.88C14.65 8.93 13.37 7.96 11.35 7.96C10.06 7.96 8.98 8.38 8.09 9.23L8.21 8.24ZM7.85 11.15C8.41 10.39 9 10.01 9.61 10.01C9.96 10.01 10.24 10.09 10.45 10.26C11.07 10.73 11.39 11.66 11.39 13.05C11.39 15.04 11.12 16.68 10.59 17.96C10.32 18.63 9.96 19.17 9.51 19.58C9.06 19.99 8.53 20.2 7.94 20.2C7.34 20.2 6.89 20.14 6.61 20.03L7.85 11.15ZM21.65 18.91C21.26 18.36 21.07 17.48 21.07 16.26C22.13 16.24 23.2 16.05 24.28 15.7C24.82 15.52 25.35 15.28 25.84 15C26.34 14.71 26.77 14.38 27.15 13.98C27.52 13.59 27.81 13.15 28.02 12.66C28.22 12.17 28.32 11.66 28.32 11.13C28.32 10.59 28.23 10.13 28.06 9.73C27.54 8.55 26.34 7.96 24.46 7.96C22.3 7.96 20.5 8.77 19.05 10.39C17.59 12 16.86 14.04 16.86 16.48C16.86 16.5 16.86 16.53 16.86 16.55C16.86 17.49 17.03 18.34 17.36 19.11C17.54 19.5 17.75 19.86 18.02 20.19C18.29 20.52 18.61 20.81 18.99 21.05C19.37 21.29 19.81 21.48 20.31 21.62C20.81 21.76 21.4 21.82 22.09 21.82C22.77 21.82 23.42 21.73 24.03 21.54C25.62 21.05 26.77 20.24 27.5 19.11L26.75 17.9C25.81 19.12 24.65 19.73 23.26 19.73C22.58 19.73 22.04 19.45 21.65 18.91ZM24.56 11.21C24.56 12.29 24.16 13.18 23.36 13.87C22.66 14.47 21.89 14.8 21.07 14.85C21.29 11.34 22.14 9.58 23.6 9.58C24.24 9.58 24.56 10.12 24.56 11.21ZM38.12 18.09L36.25 14.71L41.49 8.05L37.92 8.05L35.32 12.14L34.32 9.19C34.06 8.37 33.33 7.96 32.13 7.96C31.56 7.96 31.07 8.02 30.65 8.14C29.56 8.43 28.82 8.81 28.45 9.3L28.91 10.28C29.16 10.13 29.47 10.06 29.84 10.06C30.09 10.06 30.32 10.27 30.56 10.69L30.76 11.03L32.69 14.71L27.27 21.59L30.96 21.59L33.69 17.22L34.85 20.59C35.14 21.41 35.84 21.82 36.93 21.82C37.54 21.82 38.09 21.75 38.56 21.59C39.76 21.2 40.56 20.68 40.98 20.03L40.45 19.05C40.03 19.34 39.71 19.49 39.49 19.49C39.27 19.49 39.06 19.4 38.85 19.22C38.64 19.03 38.4 18.66 38.12 18.09L38.12 18.09Z" />
</svg>